<?xml version="1.0" encoding="UTF-8" standalone="no"?>
<!-- Created with Inkscape (http://www.inkscape.org/) -->

<svg
   xmlns:dc="http://purl.org/dc/elements/1.1/"
   xmlns:cc="http://creativecommons.org/ns#"
   xmlns:rdf="http://www.w3.org/1999/02/22-rdf-syntax-ns#"
   xmlns:svg="http://www.w3.org/2000/svg"
   xmlns="http://www.w3.org/2000/svg"
   xmlns:sodipodi="http://sodipodi.sourceforge.net/DTD/sodipodi-0.dtd"
   xmlns:inkscape="http://www.inkscape.org/namespaces/inkscape"
   width="100mm"
   height="100mm"
   viewBox="0 0 100 100"
   version="1.1"
   id="svg8"
   sodipodi:docname="go.svg"
   inkscape:version="0.92.3 (2405546, 2018-03-11)">
  <defs
     id="defs2">
    <marker
       inkscape:stockid="Arrow1Mstart"
       orient="auto"
       refY="0"
       refX="0"
       id="Arrow1Mstart"
       style="overflow:visible"
       inkscape:isstock="true">
      <path
         id="path4526"
         d="M 0,0 5,-5 -12.5,0 5,5 Z"
         style="fill:#000000;fill-opacity:1;fill-rule:evenodd;stroke:#000000;stroke-width:1.00000003pt;stroke-opacity:1"
         transform="matrix(0.4,0,0,0.4,4,0)"
         inkscape:connector-curvature="0" />
    </marker>
    <marker
       inkscape:stockid="Arrow1Lstart"
       orient="auto"
       refY="0"
       refX="0"
       id="Arrow1Lstart"
       style="overflow:visible"
       inkscape:isstock="true">
      <path
         id="path4520"
         d="M 0,0 5,-5 -12.5,0 5,5 Z"
         style="fill:#000000;fill-opacity:1;fill-rule:evenodd;stroke:#000000;stroke-width:1.00000003pt;stroke-opacity:1"
         transform="matrix(0.8,0,0,0.8,10,0)"
         inkscape:connector-curvature="0" />
    </marker>
  </defs>
  <sodipodi:namedview
     id="base"
     pagecolor="#ffffff"
     bordercolor="#666666"
     borderopacity="1.0"
     inkscape:pageopacity="1"
     inkscape:pageshadow="2"
     inkscape:zoom="0.98994949"
     inkscape:cx="213.81395"
     inkscape:cy="186.53172"
     inkscape:document-units="mm"
     inkscape:current-layer="layer1"
     showgrid="false"
     inkscape:window-width="1680"
     inkscape:window-height="997"
     inkscape:window-x="0"
     inkscape:window-y="27"
     inkscape:window-maximized="1" />
  <metadata
     id="metadata5">
    <rdf:RDF>
      <cc:Work
         rdf:about="">
        <dc:format>image/svg+xml</dc:format>
        <dc:type
           rdf:resource="http://purl.org/dc/dcmitype/StillImage" />
        <dc:title></dc:title>
      </cc:Work>
    </rdf:RDF>
  </metadata>
  <g
     inkscape:label="Layer 1"
     inkscape:groupmode="layer"
     id="layer1"
     transform="translate(9.5367432e-7,-197)">
    <circle
       style="fill:none;stroke:#000000;stroke-width:8.98511696;stroke-linejoin:round;stroke-miterlimit:4;stroke-dasharray:none;stroke-opacity:1"
       id="path4900"
       cx="-50"
       cy="247"
       inkscape:export-xdpi="48.006001"
       inkscape:export-ydpi="48.006001"
       transform="scale(-1,1)"
       r="45.507442"
       inkscape:export-filename="/home/kate/documents/code/opencv/gateway-computer-vision/img/go-small.png" />
    <path
       style="fill:#00bb05;fill-opacity:1;stroke:none;stroke-width:0.44743481;stroke-linecap:round;stroke-linejoin:miter;stroke-miterlimit:4;stroke-dasharray:none;stroke-dashoffset:0;stroke-opacity:1;paint-order:normal"
       id="path828"
       sodipodi:type="arc"
       sodipodi:cx="50"
       sodipodi:cy="247"
       sodipodi:rx="30"
       sodipodi:ry="30"
       sodipodi:start="0"
       sodipodi:end="6.2771116"
       sodipodi:open="true"
       d="m 80,247 a 30,30 0 0 1 -29.954447,29.99997 30,30 0 0 1 -30.045415,-29.90886 30,30 0 0 1 29.863204,-30.0908 30,30 0 0 1 30.136105,29.81748" />
    <g
       aria-label="GO"
       style="font-style:normal;font-variant:normal;font-weight:normal;font-stretch:normal;font-size:4.23333311px;line-height:1.25;font-family:sans-serif;-inkscape-font-specification:sans-serif;letter-spacing:0px;word-spacing:0px;fill:#ffffff;fill-opacity:1;stroke:#ffffff;stroke-width:2.20000005;stroke-miterlimit:4;stroke-dasharray:none;stroke-opacity:1"
       id="text840"
       transform="matrix(1.2809031,0,0,1.2809031,-13.760709,-68.534226)">
      <path
         d="m 45.05264,252.93153 v -4.97334 h -4.092773 v -2.05879 h 6.573242 v 7.9499 q -1.451075,1.0294 -3.199805,1.5627 -1.74873,0.52089 -3.733105,0.52089 -4.340821,0 -6.796485,-2.53007 -2.443261,-2.54248 -2.443261,-7.06934 0,-4.53926 2.443261,-7.06933 2.455664,-2.54249 6.796485,-2.54249 1.810742,0 3.435449,0.44649 1.637109,0.44648 3.013769,1.31465 v 2.6665 q -1.389062,-1.17822 -2.951758,-1.77353 -1.562695,-0.59532 -3.286621,-0.59532 -3.398242,0 -5.109765,1.89756 -1.699121,1.89756 -1.699121,5.65547 0,3.74551 1.699121,5.64307 1.711523,1.89756 5.109765,1.89756 1.327051,0 2.368848,-0.22325 1.041797,-0.23564 1.872754,-0.71933 z"
         style="font-size:25.39999962px;stroke:#ffffff;stroke-width:2.20000005;stroke-miterlimit:4;stroke-dasharray:none;stroke-opacity:1;fill:#ffffff;fill-opacity:1"
         id="path842"
         inkscape:connector-curvature="0" />
      <path
         d="m 59.637796,238.75565 q -2.728516,0 -4.34082,2.03398 -1.599903,2.03399 -1.599903,5.54385 0,3.49746 1.599903,5.53145 1.612304,2.03398 4.34082,2.03398 2.728515,0 4.316015,-2.03398 1.599903,-2.03399 1.599903,-5.53145 0,-3.50986 -1.599903,-5.54385 -1.5875,-2.03398 -4.316015,-2.03398 z m 0,-2.03399 q 3.894336,0 6.225976,2.6169 2.331641,2.60449 2.331641,6.99492 0,4.37803 -2.331641,6.99492 -2.33164,2.60449 -6.225976,2.60449 -3.906738,0 -6.250781,-2.60449 -2.331641,-2.60449 -2.331641,-6.99492 0,-4.39043 2.331641,-6.99492 2.344043,-2.6169 6.250781,-2.6169 z"
         style="font-size:25.39999962px;stroke:#ffffff;stroke-width:2.20000005;stroke-miterlimit:4;stroke-dasharray:none;stroke-opacity:1;fill:#ffffff;fill-opacity:1"
         id="path844"
         inkscape:connector-curvature="0" />
    </g>
  </g>
</svg>
