<?xml version="1.0" encoding="UTF-8" standalone="no"?>
<!-- Created with Inkscape (http://www.inkscape.org/) -->

<svg
   xmlns:dc="http://purl.org/dc/elements/1.1/"
   xmlns:cc="http://creativecommons.org/ns#"
   xmlns:rdf="http://www.w3.org/1999/02/22-rdf-syntax-ns#"
   xmlns:svg="http://www.w3.org/2000/svg"
   xmlns="http://www.w3.org/2000/svg"
   xmlns:sodipodi="http://sodipodi.sourceforge.net/DTD/sodipodi-0.dtd"
   xmlns:inkscape="http://www.inkscape.org/namespaces/inkscape"
   width="100mm"
   height="100mm"
   viewBox="0 0 100 100"
   version="1.1"
   id="svg8"
   sodipodi:docname="go.svg"
   inkscape:version="0.92.3 (2405546, 2018-03-11)">
  <defs
     id="defs2">
    <marker
       inkscape:stockid="Arrow1Mstart"
       orient="auto"
       refY="0"
       refX="0"
       id="Arrow1Mstart"
       style="overflow:visible"
       inkscape:isstock="true">
      <path
         id="path4526"
         d="M 0,0 5,-5 -12.5,0 5,5 Z"
         style="fill:#000000;fill-opacity:1;fill-rule:evenodd;stroke:#000000;stroke-width:1.00000003pt;stroke-opacity:1"
         transform="matrix(0.4,0,0,0.4,4,0)"
         inkscape:connector-curvature="0" />
    </marker>
    <marker
       inkscape:stockid="Arrow1Lstart"
       orient="auto"
       refY="0"
       refX="0"
       id="Arrow1Lstart"
       style="overflow:visible"
       inkscape:isstock="true">
      <path
         id="path4520"
         d="M 0,0 5,-5 -12.5,0 5,5 Z"
         style="fill:#000000;fill-opacity:1;fill-rule:evenodd;stroke:#000000;stroke-width:1.00000003pt;stroke-opacity:1"
         transform="matrix(0.8,0,0,0.8,10,0)"
         inkscape:connector-curvature="0" />
    </marker>
  </defs>
  <sodipodi:namedview
     id="base"
     pagecolor="#ffffff"
     bordercolor="#666666"
     borderopacity="1.0"
     inkscape:pageopacity="1"
     inkscape:pageshadow="2"
     inkscape:zoom="0.98994949"
     inkscape:cx="213.81395"
     inkscape:cy="186.53172"
     inkscape:document-units="mm"
     inkscape:current-layer="layer1"
     showgrid="false"
     inkscape:window-width="1680"
     inkscape:window-height="997"
     inkscape:window-x="0"
     inkscape:window-y="27"
     inkscape:window-maximized="1" />
  <metadata
     id="metadata5">
    <rdf:RDF>
      <cc:Work
         rdf:about="">
        <dc:format>image/svg+xml</dc:format>
        <dc:type
           rdf:resource="http://purl.org/dc/dcmitype/StillImage" />
        <dc:title></dc:title>
      </cc:Work>
    </rdf:RDF>
  </metadata>
  <g
     inkscape:label="Layer 1"
     inkscape:groupmode="layer"
     id="layer1"
     transform="translate(9.5367432e-7,-197)">
    <circle
       style="fill:none;stroke:#000000;stroke-width:8.98511696;stroke-linejoin:round;stroke-miterlimit:4;stroke-dasharray:none;stroke-opacity:1"
       id="path4900"
       cx="-50"
       cy="247"
       inkscape:export-xdpi="96"
       inkscape:export-ydpi="96"
       transform="scale(-1,1)"
       r="45.507442" />
    <g
       aria-label="GO"
       style="font-style:normal;font-variant:normal;font-weight:normal;font-stretch:normal;font-size:4.23333311px;line-height:1.25;font-family:sans-serif;-inkscape-font-specification:sans-serif;letter-spacing:0px;word-spacing:0px;fill:#000000;fill-opacity:1;stroke:#000000;stroke-width:3;stroke-miterlimit:4;stroke-dasharray:none;stroke-opacity:1"
       id="text926"
       transform="matrix(0.9784894,0,0,0.96432348,0.97725699,10.157079)">
      <path
         d="m 40.660427,258.84246 v -9.94668 H 32.47488 v -4.11758 h 13.146484 v 15.8998 q -2.902148,2.05879 -6.399609,3.12539 -3.497461,1.0418 -7.466211,1.0418 -8.68164,0 -13.592968,-5.06016 -4.886524,-5.08496 -4.886524,-14.13867 0,-9.07851 4.886524,-14.13867 4.911328,-5.08496 13.592968,-5.08496 3.621485,0 6.870899,0.89297 3.274218,0.89297 6.027539,2.6293 v 5.333 q -2.778125,-2.35644 -5.903516,-3.54707 -3.12539,-1.19062 -6.573242,-1.19062 -6.796484,0 -10.219531,3.79512 -3.398242,3.79511 -3.398242,11.31093 0,7.49102 3.398242,11.28614 3.423047,3.79511 10.219531,3.79511 2.654102,0 4.737695,-0.44648 2.083594,-0.47129 3.745508,-1.43867 z"
         style="font-size:50.79999924px;fill:#000000;fill-opacity:1;stroke:#000000;stroke-width:3;stroke-miterlimit:4;stroke-dasharray:none;stroke-opacity:1"
         id="path928"
         inkscape:connector-curvature="0" />
      <path
         d="m 69.830739,230.4907 q -5.457031,0 -8.681641,4.06797 -3.199804,4.06797 -3.199804,11.08769 0,6.99492 3.199804,11.06289 3.22461,4.06797 8.681641,4.06797 5.457031,0 8.632031,-4.06797 3.199805,-4.06797 3.199805,-11.06289 0,-7.01972 -3.199805,-11.08769 -3.175,-4.06797 -8.632031,-4.06797 z m 0,-4.06797 q 7.788672,0 12.451953,5.23379 4.663281,5.20898 4.663281,13.98984 0,8.75606 -4.663281,13.98985 -4.663281,5.20898 -12.451953,5.20898 -7.813477,0 -12.501562,-5.20898 -4.663282,-5.20899 -4.663282,-13.98985 0,-8.78086 4.663282,-13.98984 4.688085,-5.23379 12.501562,-5.23379 z"
         style="font-size:50.79999924px;fill:#000000;fill-opacity:1;stroke:#000000;stroke-width:3;stroke-miterlimit:4;stroke-dasharray:none;stroke-opacity:1"
         id="path930"
         inkscape:connector-curvature="0" />
    </g>
  </g>
</svg>
